<?xml version="1.0" encoding="UTF-8"?>
<svg id="Capa_1" data-name="Capa 1" xmlns="http://www.w3.org/2000/svg" viewBox="0 0 50 50">
  <defs>
    <style>
      .cls-1 {
        fill: #29abe2;
        stroke-width: 0px;
      }
    </style>
  </defs>
  <path class="cls-1" d="M11.43,45c-2.13,0-4.15-.85-5.72-2.43-1.71-1.71-2.64-3.86-2.62-6.06.02-2.44,1.17-4.87,3.34-7.03L27.38,8.52c4.71-4.71,11.32-4.69,16.07.06,2.17,2.17,3.4,4.88,3.46,7.64.07,2.97-1.18,5.82-3.6,8.24l-16.82,16.82-1.77-1.77,16.82-16.82c1.93-1.93,2.92-4.14,2.87-6.41-.05-2.11-1.02-4.22-2.73-5.93-3.14-3.14-8.23-4.37-12.54-.06L8.19,31.24c-3.22,3.22-3.48,6.79-.72,9.56,2.57,2.57,6.24,2.21,9.36-.91l19.65-19.65c1.55-1.55,1.68-3.68.31-5.05-1.33-1.33-3.55-1.19-5.05.31l-9.52,9.52-1.77-1.77,9.52-9.52c2.49-2.49,6.26-2.63,8.58-.31,2.36,2.36,2.22,6.05-.31,8.58l-19.65,19.65c-2.06,2.06-4.41,3.22-6.78,3.33-.13,0-.26,0-.39,0Z"/>
</svg>