<?xml version="1.0" encoding="UTF-8"?>
<svg id="Capa_1" data-name="Capa 1" xmlns="http://www.w3.org/2000/svg" viewBox="0 0 50 50">
  <defs>
    <style>
      .cls-1 {
        fill: #839598;
        fill-rule: evenodd;
        stroke-width: 0px;
      }
    </style>
  </defs>
  <path class="cls-1" d="M25.71,2.74c-8.06.01-14.84,6.48-14.99,14.57l-.21,11.08-4.33,8.25c-.89,1.69.2,3.54,2.55,3.65h8.67c.22,3.93,3.5,6.99,7.49,6.98,4,0,7.39-3.07,7.74-7.01h7.87c2.26-.01,4.45-1.66,3.31-3.99l-3.85-7.9.21-11.07c.15-8.1-6.4-14.56-14.46-14.55ZM24.94,43.36c-1.83,0-3.36-1.33-3.59-3.09h7.32c-.31,1.76-1.89,3.09-3.73,3.09ZM36.24,17.27l-.21,11.34,3.76,7.72-29.39.04,4.05-7.72.22-11.34c.11-5.94,5.1-10.67,11-10.68,5.89,0,10.69,4.7,10.58,10.63Z"/>
  <polygon class="cls-1" points="31.08 28.66 33.51 28.68 33.58 24.83 31.15 24.81 31.08 28.66"/>
  <path class="cls-1" d="M27.63,11.92c2.16.77,3.71,2.79,3.66,5.25l-.12,6.47,2.43.02.12-6.45c.07-3.82-2.55-6.96-6.07-7.83l-.02,2.53Z"/>
</svg>