<?xml version="1.0" encoding="UTF-8"?>
<svg id="Capa_1" data-name="Capa 1" xmlns="http://www.w3.org/2000/svg" viewBox="0 0 50 50">
  <defs>
    <style>
      .cls-1 {
        fill: #008c95;
      }

      .cls-1, .cls-2 {
        stroke-width: 0px;
      }

      .cls-2 {
        fill: #ff9850;
      }
    </style>
  </defs>
  <path class="cls-1" d="M30.69,16.01l-.96-.79.83-.93c1.22-1.38,1.9-3.13,1.9-4.92,0-4.11-3.34-7.45-7.45-7.45s-7.45,3.34-7.45,7.45c0,1.79.67,3.54,1.9,4.92l.83.93-.96.79c-3.24,2.66-4.7,6.15-5.22,12.39,0,3.5.27,5.2,2.75,5.62l.81.14,1.64,8.2c.85,3.4,3.09,5.59,5.7,5.59s4.86-2.21,5.71-5.61l1.64-8.18.81-.14c2.48-.42,2.75-2.15,2.75-5.67-.52-6.22-1.98-9.68-5.22-12.34ZM18.61,9.36c0-3.52,2.87-6.39,6.39-6.39s6.39,2.87,6.39,6.39-2.87,6.39-6.39,6.39-6.39-2.87-6.39-6.39ZM31.92,33.05c-.25,0-.47.18-.52.42l-1.72,8.63c-.73,2.91-2.56,4.79-4.68,4.79s-3.94-1.86-4.67-4.76l-1.73-8.65c-.05-.25-.27-.43-.52-.43-2.93,0-2.93-1.24-2.93-4.62.58-6.94,2.27-9.56,4.99-11.74.03-.03.07-.06.1-.11l.72-.93.87.41c.26.12.55.23.92.35.55.17,1.28.26,2.11.26.88,0,1.79-.1,2.43-.27.26-.07.54-.18.87-.33l.87-.41.73.94s.06.06.09.09c2.72,2.18,4.41,4.78,4.99,11.7,0,3.39,0,4.66-2.93,4.66Z"/>
  <path class="cls-2" d="M25,14.44c-1.41,0-2.73-.62-3.63-1.71-.12-.15-.1-.37.05-.49.15-.12.37-.1.49.05.77.93,1.89,1.46,3.09,1.46s2.26-.5,3.02-1.38c.13-.15.35-.16.49-.03.15.13.16.35.03.49-.89,1.03-2.19,1.62-3.55,1.62Z"/>
</svg>