<?xml version="1.0" encoding="UTF-8"?>
<svg id="Capa_1" data-name="Capa 1" xmlns="http://www.w3.org/2000/svg" viewBox="0 0 50 50">
  <defs>
    <style>
      .cls-1 {
        fill: #072b31;
        stroke-width: 0px;
      }
    </style>
  </defs>
  <path class="cls-1" d="M44.99,47.5c-.43,0-.83-.17-1.14-.47l-11.48-11.48-1.33.87c-2.98,1.94-6.44,2.96-10.01,2.96-10.17,0-18.44-8.27-18.44-18.44S10.86,2.5,21.03,2.5s18.44,8.27,18.44,18.44c0,3.64-1.07,7.16-3.09,10.2l-.9,1.34,11.47,11.47c.63.63.63,1.64,0,2.27l-.82.82c-.3.3-.7.47-1.14.47ZM21.03,4.78c-8.91,0-16.16,7.25-16.16,16.16s7.25,16.16,16.16,16.16,16.16-7.25,16.16-16.16S29.93,4.78,21.03,4.78Z"/>
</svg>