<?xml version="1.0" encoding="UTF-8"?>
<svg id="Capa_1" data-name="Capa 1" xmlns="http://www.w3.org/2000/svg" viewBox="0 0 50 50">
  <defs>
    <style>
      .cls-1 {
        fill: #072b31;
      }

      .cls-1, .cls-2, .cls-3, .cls-4 {
        stroke-width: 0px;
      }

      .cls-2 {
        fill: #008c95;
      }

      .cls-3 {
        fill: #ff9850;
      }

      .cls-4 {
        fill: #fff;
      }
    </style>
  </defs>
  <g>
    <path class="cls-4" d="M24.56,22.33l-1.31-1.08,1.12-1.27c1.67-1.88,2.58-4.26,2.58-6.69,0-5.59-4.55-10.14-10.14-10.14S6.68,7.7,6.68,13.29c0,2.44.92,4.81,2.58,6.69l1.12,1.27-1.31,1.08c-4.41,3.63-6.4,8.37-7.11,16.86,0,4.77.37,7.08,3.74,7.66h22.21c3.38-.58,3.74-2.92,3.74-7.72-.71-8.47-2.7-13.18-7.11-16.8Z"/>
    <path class="cls-1" d="M5.71,47.5c-4.1-.69-4.4-3.74-4.4-8.31.73-8.76,2.79-13.61,7.35-17.37l.79-.65-.68-.76c-1.77-2-2.75-4.53-2.75-7.12,0-5.95,4.84-10.79,10.79-10.79s10.79,4.84,10.79,10.79c0,2.6-.98,5.13-2.75,7.12l-.68.76.79.65c4.56,3.75,6.62,8.59,7.34,17.25,0,4.66-.29,7.73-4.28,8.41H5.71ZM16.82,3.81c-5.23,0-9.49,4.26-9.49,9.49,0,2.28.86,4.5,2.42,6.26l1.12,1.27c.12.13.18.31.16.48-.01.18-.1.34-.24.45l-1.31,1.08c-4.25,3.5-6.18,8.1-6.87,16.41,0,4.88.44,6.49,3.2,6.96h22.1c2.65-.47,3.09-2.1,3.09-7.07-.69-8.21-2.61-12.8-6.87-16.3h0l-1.31-1.08c-.14-.11-.22-.28-.24-.45-.01-.18.04-.35.16-.48l1.13-1.27c1.56-1.76,2.42-3.98,2.42-6.26,0-5.23-4.26-9.49-9.49-9.49Z"/>
  </g>
  <path class="cls-3" d="M16.82,20.2c-1.92,0-3.72-.85-4.94-2.33-.17-.2-.14-.5.06-.67.2-.17.5-.14.67.06,1.04,1.26,2.58,1.99,4.21,1.99s3.08-.68,4.12-1.87c.17-.2.47-.22.67-.05.2.17.22.47.05.67-1.22,1.4-2.98,2.2-4.83,2.2Z"/>
  <g>
    <path class="cls-1" d="M46.5,41.04h-7.6c-.36,0-.65-.29-.65-.65v-6.65c.01-2.45,2.01-4.44,4.45-4.44s4.45,1.99,4.45,4.44h0s0,6.66,0,6.66c0,.17-.07.34-.19.46s-.29.19-.46.19ZM39.55,39.74h6.3v-6c0-1.73-1.42-3.14-3.15-3.14s-3.14,1.41-3.15,3.14v6Z"/>
    <g>
      <rect class="cls-2" x="37.36" y="36.3" width="10.67" height="9.33"/>
      <path class="cls-1" d="M48.03,46.28h-10.67c-.36,0-.65-.29-.65-.65v-9.33c0-.36.29-.65.65-.65h10.67c.36,0,.65.29.65.65v9.33c0,.36-.29.65-.65.65ZM38.02,44.98h9.36v-8.03h-9.36v8.03Z"/>
    </g>
    <path class="cls-1" d="M42.7,43.23c-.36,0-.65-.29-.65-.65v-2.39c0-.36.29-.65.65-.65s.65.29.65.65v2.39c0,.36-.29.65-.65.65Z"/>
  </g>
</svg>