<?xml version="1.0" encoding="UTF-8"?>
<svg id="Capa_1" data-name="Capa 1" xmlns="http://www.w3.org/2000/svg" viewBox="0 0 50 50">
  <defs>
    <style>
      .cls-1 {
        fill: #008c95;
      }

      .cls-1, .cls-2 {
        stroke-width: 0px;
      }

      .cls-2 {
        fill: #ff9850;
      }
    </style>
  </defs>
  <path class="cls-1" d="M37.94,38.19H12.06c-.85,0-1.54-.69-1.54-1.54v-17.9c0-.51.25-.99.68-1.28l12.94-8.71c.52-.35,1.2-.35,1.72,0l12.94,8.71c.43.29.68.76.68,1.28v17.9c0,.85-.69,1.54-1.54,1.54ZM25,9.7c-.06,0-.13.02-.18.06l-12.94,8.71c-.09.06-.14.16-.14.27v17.9c0,.18.15.33.33.33h25.87c.18,0,.33-.15.33-.33v-17.9c0-.11-.05-.21-.14-.27l-12.94-8.71c-.06-.04-.12-.06-.18-.06Z"/>
  <g>
    <rect class="cls-2" x="22.18" y="29.75" width="5.64" height="7.83"/>
    <path class="cls-2" d="M28.43,38.19h-6.85v-8.43c0-.34.27-.61.61-.61h5.64c.34,0,.61.27.61.61v8.43ZM22.79,36.97h4.42v-6.61h-4.42v6.61Z"/>
  </g>
</svg>