<?xml version="1.0" encoding="UTF-8"?>
<svg id="Capa_1" data-name="Capa 1" xmlns="http://www.w3.org/2000/svg" viewBox="0 0 50 50">
  <defs>
    <style>
      .cls-1 {
        fill: #008c95;
      }

      .cls-1, .cls-2 {
        stroke-width: 0px;
      }

      .cls-2 {
        fill: #ff9850;
      }
    </style>
  </defs>
  <path class="cls-1" d="M38.35,16.5H11.65c-.54,0-.97-.44-.97-.97s.44-.97.97-.97h26.71c.54,0,.97.44.97.97s-.44.97-.97.97Z"/>
  <path class="cls-1" d="M38.35,25.97H11.65c-.54,0-.97-.44-.97-.97s.44-.97.97-.97h26.71c.54,0,.97.44.97.97s-.44.97-.97.97Z"/>
  <path class="cls-2" d="M29.86,35.44H11.65c-.54,0-.97-.44-.97-.97s.44-.97.97-.97h18.21c.54,0,.97.44.97.97s-.44.97-.97.97Z"/>
</svg>