<?xml version="1.0" encoding="UTF-8"?>
<svg id="Capa_1" data-name="Capa 1" xmlns="http://www.w3.org/2000/svg" viewBox="0 0 50 50">
  <defs>
    <style>
      .cls-1 {
        fill: #008c95;
      }

      .cls-1, .cls-2 {
        stroke-width: 0px;
      }

      .cls-2 {
        fill: #ff9850;
      }
    </style>
  </defs>
  <path class="cls-1" d="M27.37,32.78h-10.5c-.78,0-1.39-.52-1.39-1.18v-14.47c0-.66.61-1.18,1.39-1.18h10.5c.78,0,1.39.52,1.39,1.18v3c0,.35-.28.63-.63.63s-.63-.28-.63-.63v-2.9s-.07-.02-.12-.02h-10.5c-.05,0-.09,0-.12.02v14.26s.07.02.12.02h10.5c.05,0,.09,0,.12-.02v-2.9c0-.35.28-.63.63-.63s.63.28.63.63v3c0,.66-.61,1.18-1.39,1.18Z"/>
  <g>
    <path class="cls-2" d="M37.93,25h-13.91c-.35,0-.63-.28-.63-.63s.28-.63.63-.63h13.91c.35,0,.63.28.63.63s-.28.63-.63.63Z"/>
    <path class="cls-2" d="M37.93,25c-.16,0-.32-.06-.45-.19l-4.92-4.92c-.25-.25-.25-.65,0-.89s.65-.25.89,0l4.92,4.92c.25.25.25.65,0,.89-.12.12-.29.19-.45.19Z"/>
    <path class="cls-2" d="M33.01,29.92c-.16,0-.32-.06-.45-.19-.25-.25-.25-.65,0-.89l4.92-4.92c.25-.25.65-.25.89,0s.25.65,0,.89l-4.92,4.92c-.12.12-.29.19-.45.19Z"/>
  </g>
</svg>