<?xml version="1.0" encoding="UTF-8"?>
<svg id="Capa_1" data-name="Capa 1" xmlns="http://www.w3.org/2000/svg" viewBox="0 0 50 50">
  <defs>
    <style>
      .cls-1 {
        fill: #008c95;
      }

      .cls-1, .cls-2 {
        stroke-width: 0px;
      }

      .cls-2 {
        fill: #ff9850;
      }
    </style>
  </defs>
  <path class="cls-1" d="M23.62,42.98c-.66,0-1.15-.3-1.44-.9-.49-.99-.92-2-1.27-2.85l-.14-.33c-.12-.28-.24-.55-.34-.84-.51-.2-1.01-.39-1.5-.6l-.4-.64.3.66c-1.34.61-2.66,1.2-4.02,1.69-.56.2-1.05.11-1.5-.28-.5-.44-.97-.92-1.42-1.38-.29-.3-.59-.6-.89-.89-.29-.28-.59-.77-.32-1.52.32-.91.7-1.81,1.06-2.67l.25-.59c.09-.21.16-.37.22-.51.07-.16.12-.26.14-.34-.01.02-.05-.06-.1-.17-.06-.16-.15-.36-.25-.65-.17-.47-.4-.68-.9-.84-.84-.25-1.64-.58-2.42-.91l-.64-.26c-.08-.03-.16-.07-.24-.11-.05-.03-.11-.05-.16-.07-.41-.16-.89-.52-.87-1.35.02-1.05.02-2.1,0-3.15-.01-.57.25-1.01.76-1.26.51-.25,1.03-.47,1.56-.69l.39-.16c.71-.3,1.43-.58,2.15-.86.1-.04.11-.06.13-.11.16-.45.33-.85.52-1.22.05-.1.07-.16-.01-.32-.54-1.08-1.01-2.2-1.47-3.28-.52-1.22-.45-1.54.48-2.47l.16-.16c.58-.58,1.17-1.16,1.78-1.72.43-.39.92-.49,1.46-.31,1.43.49,2.86,1.08,4.09,1.6.13.06.16.04.2.03.47-.22.95-.41,1.44-.59.45-1.22.92-2.41,1.43-3.58.33-.98,1-1.43,1.97-1.36.86.06,1.75.04,2.51,0,.77-.03,1.33.32,1.65,1.02l.17.37c.35.78.7,1.55,1.03,2.34l.17.4c.11.25.22.51.31.77l.1.06c.46.18.91.35,1.36.55.05.02.06.03.15-.01,1.06-.48,2.46-1.11,3.91-1.65.62-.23,1.16-.13,1.66.32.44.4.85.81,1.27,1.23.31.31.62.62.94.93.44.42.57.97.37,1.54-.48,1.35-1.03,2.63-1.56,3.81-.13.3-.1.37-.05.46.2.38.35.77.5,1.15.05.12.05.12.12.15,1.37.48,2.57.95,3.67,1.41l.11.05c.29.11.72.28.97.76.06.1.08.22.08.34v3.83c0,.16-.05.31-.14.43-.29.39-.68.56-.97.69-1.18.53-2.35,1.01-3.66,1.51-.16.06-.17.1-.19.17-.14.42-.31.83-.5,1.21-.04.08-.07.13.04.35.43.87.79,1.67,1.13,2.46l.11.26c.17.39.33.78.47,1.18.24.7-.1,1.17-.32,1.38-.28.27-.56.55-.83.83-.5.51-1.03,1.04-1.59,1.53-.39.34-.85.42-1.37.24-1.34-.46-2.62-.96-3.81-1.49-.37-.17-.52-.15-.7-.05-.33.18-.66.3-.98.41l-.23.08c-.49,1.32-.92,2.41-1.4,3.51-.48,1.08-.74,1.46-1.78,1.43-.1,0-.22,0-.35,0-.34,0-.68,0-1.02,0-.48,0-.95,0-1.43,0-.02,0-.05,0-.07,0ZM26.2,41.51c.12,0,.23,0,.33,0,.05,0,.1,0,.14,0,.08-.15.21-.44.27-.56.47-1.06.88-2.13,1.36-3.42.16-.42.45-.72.87-.87l.24-.09c.28-.1.54-.19.76-.31.81-.45,1.53-.22,2.01,0,1.15.51,2.38,1,3.68,1.44.51-.44.98-.92,1.47-1.41.26-.26.52-.53.78-.78-.12-.36-.26-.68-.4-1.01l-.11-.27c-.32-.76-.68-1.54-1.09-2.38-.29-.59-.3-1.13-.02-1.66.16-.31.3-.65.42-1,.17-.51.52-.86,1.06-1.07,1.28-.49,2.43-.96,3.5-1.44,0,0,.09-.04.09-.04.09-.04.17-.07.24-.11v-3.19s-.09-.04-.12-.05l-.15-.06c-1.08-.45-2.25-.91-3.59-1.38-.48-.17-.8-.48-.98-.94-.16-.41-.29-.75-.45-1.05-.37-.7-.19-1.29,0-1.74.51-1.16,1.05-2.41,1.52-3.71-.32-.31-.64-.63-.97-.95-.4-.4-.8-.8-1.21-1.18-.04-.04-.07-.06-.08-.06,0,0-.03.01-.08.03-1.41.53-2.79,1.14-3.82,1.62-.46.21-.9.22-1.34.02-.43-.19-.86-.35-1.3-.52-.5-.19-.8-.49-.95-.93-.08-.23-.18-.46-.28-.68l-.18-.43c-.31-.77-.66-1.53-1-2.29l-.17-.37c-.08-.17-.1-.17-.26-.17-.8.03-1.74.06-2.68,0-.32-.02-.37.03-.46.3-.02.06-.04.12-.07.18-.51,1.15-.96,2.32-1.42,3.53-.16.41-.44.69-.84.84-.45.17-.9.35-1.34.55-.44.2-.88.2-1.37,0-1.26-.53-2.6-1.09-3.99-1.56-.61.55-1.17,1.11-1.74,1.68l-.16.16c-.14.14-.29.29-.36.38.03.11.11.29.18.46.46,1.09.93,2.19,1.45,3.23.27.55.27,1.1,0,1.63-.16.31-.3.65-.44,1.04-.17.47-.5.81-.99.99-.71.27-1.41.55-2.1.84l-.4.17c-.48.2-.95.39-1.41.62.02,1.07.02,2.11,0,3.15.07.03.14.06.2.09.05.02.1.05.16.07l.65.27c.78.32,1.52.63,2.29.86.94.28,1.53.84,1.85,1.74.09.26.17.45.23.59.3.73.26.93-.06,1.66-.06.13-.12.28-.21.48l-.25.6c-.36.85-.72,1.73-1.04,2.6,0,0,0,0,0,.01.3.29.6.59.89.88.46.46.89.9,1.35,1.31,1.35-.47,2.64-1.04,3.95-1.64.45-.2.86-.21,1.27-.04.47.2.95.39,1.43.58.42.16.72.46.86.88.09.26.2.5.31.75l.15.35c.34.83.76,1.81,1.23,2.76.04.08.08.09.16.09.49-.02.99-.01,1.48-.01.33,0,.66,0,.99,0,.03,0,.06,0,.09,0ZM41.88,23.38h0,0Z"/>
  <path class="cls-2" d="M25,32.39c-4.08,0-7.39-3.32-7.39-7.39s3.32-7.39,7.39-7.39,7.39,3.32,7.39,7.39-3.32,7.39-7.39,7.39ZM25,19.07c-3.27,0-5.94,2.66-5.94,5.93s2.66,5.94,5.94,5.94,5.94-2.66,5.94-5.94-2.66-5.93-5.94-5.93Z"/>
</svg>