<?xml version="1.0" encoding="UTF-8"?>
<svg id="Capa_1" data-name="Capa 1" xmlns="http://www.w3.org/2000/svg" viewBox="0 0 50 50">
  <defs>
    <style>
      .cls-1 {
        fill: #839598;
        stroke-width: 0px;
      }
    </style>
  </defs>
  <path class="cls-1" d="M25,47.5c-12.41,0-22.5-10.09-22.5-22.5S12.59,2.5,25,2.5s22.5,10.09,22.5,22.5-10.09,22.5-22.5,22.5ZM25,4.37C13.63,4.37,4.38,13.63,4.38,25s9.25,20.63,20.62,20.63,20.63-9.25,20.63-20.63S36.37,4.37,25,4.37Z"/>
  <g>
    <path class="cls-1" d="M19.94,19.82l-4.12-.81c.54-6.01,3.47-9.01,8.8-9.01,2.57,0,4.59.72,6.08,2.17,1.49,1.45,2.23,3.39,2.23,5.85,0,1.22-.26,2.43-.77,3.65-.51,1.21-1.71,2.59-3.59,4.14-1.29,1.06-2.07,1.89-2.35,2.49s-.41,1.39-.41,2.38l.02,1.15h-4.02l.02-.89c0-2.08.16-3.54.49-4.36.32-.82,1.13-1.79,2.42-2.89,1.27-1.09,2.15-2.02,2.63-2.8.48-.77.72-1.75.72-2.94,0-1.36-.34-2.39-1.01-3.08-.67-.69-1.59-1.04-2.75-1.04-2.7,0-4.16,2.01-4.39,6.02Z"/>
    <circle class="cls-1" cx="23.82" cy="36.94" r="3.06"/>
  </g>
</svg>