<?xml version="1.0" encoding="UTF-8"?>
<svg id="Capa_1" data-name="Capa 1" xmlns="http://www.w3.org/2000/svg" viewBox="0 0 50 50">
  <defs>
    <style>
      .cls-1 {
        fill: #008c95;
        stroke-width: 0px;
      }
    </style>
  </defs>
  <path class="cls-1" d="M22.75,4.75v18s-18,0-18,0c-1.24,0-2.25,1.01-2.25,2.25,0,1.24,1.01,2.25,2.25,2.25h18s0,18,0,18c0,1.24,1.01,2.25,2.25,2.25,1.24,0,2.25-1.01,2.25-2.25v-18s18,0,18,0c1.24,0,2.25-1.01,2.25-2.25,0-1.24-1.01-2.25-2.25-2.25h-18s0-18,0-18c0-1.24-1.01-2.25-2.25-2.25-1.24,0-2.25,1.01-2.25,2.25Z"/>
</svg>