<?xml version="1.0" encoding="UTF-8"?>
<svg id="Capa_1" data-name="Capa 1" xmlns="http://www.w3.org/2000/svg" viewBox="0 0 50 50">
  <defs>
    <style>
      .cls-1 {
        fill: #39555a;
        stroke-width: 0px;
      }
    </style>
  </defs>
  <polygon class="cls-1" points="5.51 36.25 5.52 36.25 5.51 36.24 5.51 36.25"/>
  <polygon class="cls-1" points="44.49 36.25 44.49 36.24 44.48 36.25 44.49 36.25"/>
  <polygon class="cls-1" points="44.49 13.75 44.48 13.75 44.49 13.76 44.49 13.75"/>
  <polygon class="cls-1" points="5.51 13.76 5.52 13.75 5.51 13.75 5.51 13.76"/>
  <path class="cls-1" d="M27.89,29.28c3.8-1.37,6.56-5.35,6.56-10.06,0-5.84-4.23-10.57-9.45-10.57s-9.45,4.73-9.45,10.57c0,4.71,2.75,8.69,6.56,10.06-5.19,1.04-9.86,4.8-12.59,10.36l1.62.8c2.97-6.04,8.15-9.65,13.86-9.65s10.89,3.61,13.86,9.65l1.62-.8c-2.73-5.56-7.39-9.33-12.59-10.36ZM17.36,19.22c0-4.83,3.43-8.76,7.64-8.76s7.64,3.93,7.64,8.76-3.43,8.76-7.64,8.76-7.64-3.93-7.64-8.76Z"/>
  <path class="cls-1" d="M25,2.5c-.69,0-1.37.04-2.05.1-.17.02-.34.03-.51.05-.64.07-1.28.17-1.91.29-.03,0-.05,0-.08.01-.64.13-1.27.3-1.89.49-.17.05-.34.1-.51.16-.56.18-1.11.38-1.65.6-.06.03-.13.05-.19.07-.57.24-1.13.52-1.68.81-.17.09-.35.19-.52.28-.46.26-.91.53-1.35.82-.11.07-.22.14-.33.21-.48.33-.94.68-1.4,1.05-.17.14-.35.28-.52.43-.36.3-.7.62-1.04.94-.14.14-.29.27-.43.42-.38.39-.74.79-1.09,1.2-.16.19-.31.38-.46.57-.27.34-.53.69-.78,1.04-.14.19-.27.38-.4.58-.24.37-.48.74-.7,1.12l.03-.02c-1.93,3.32-3.05,7.16-3.05,11.27,0,12.43,10.07,22.5,22.5,22.5s22.5-10.07,22.5-22.5S37.43,2.5,25,2.5ZM25,46.6c-11.91,0-21.6-9.69-21.6-21.6,0-4.54,1.42-8.76,3.82-12.24L23.29,3.49c.57-.05,1.14-.09,1.71-.09,11.91,0,21.6,9.69,21.6,21.6s-9.69,21.6-21.6,21.6Z"/>
</svg>